<svg width="24" height="18" viewBox="0 0 24 18" fill="none" xmlns="http://www.w3.org/2000/svg">
<path d="M18.0001 7H16.7401C16.366 5.551 15.5929 4.23599 14.5088 3.2044C13.4246 2.1728 12.0728 1.46599 10.607 1.16428C9.14124 0.862561 7.6202 0.97804 6.21676 1.49759C4.81332 2.01714 3.58375 2.91993 2.66776 4.10338C1.75177 5.28683 1.1861 6.70348 1.03502 8.19235C0.883935 9.68123 1.1535 11.1826 1.81309 12.526C2.47267 13.8693 3.49583 15.0007 4.76629 15.7916C6.03676 16.5824 7.50359 17.0011 9.00011 17H18.0001C19.3262 17 20.598 16.4732 21.5356 15.5355C22.4733 14.5979 23.0001 13.3261 23.0001 12C23.0001 10.6739 22.4733 9.40215 21.5356 8.46447C20.598 7.52678 19.3262 7 18.0001 7Z" stroke="#43946C" stroke-width="2" stroke-linecap="round" stroke-linejoin="round"/>
</svg>
