<svg width="9" height="10" viewBox="0 0 9 10" fill="none" xmlns="http://www.w3.org/2000/svg">
<path fill-rule="evenodd" clip-rule="evenodd" d="M0.9 0.9L0.9 2.44996C0.9 2.69849 0.698528 2.89996 0.45 2.89996C0.201472 2.89996 0 2.69849 0 2.44996V0.450019C0 0.402446 0.00738235 0.356597 0.0210639 0.313555C0.0788501 0.131732 0.249044 0 0.450006 0H8.45001C8.60534 0 8.74229 0.0786999 8.82315 0.198401C8.87167 0.270221 8.90001 0.356802 8.90001 0.45L8.90001 0.450019V2.44996C8.90001 2.69849 8.69854 2.89996 8.45001 2.89996C8.20148 2.89996 8.00001 2.69849 8.00001 2.44996V0.9H5.00001V8.55H6.2C6.44853 8.55 6.65 8.75147 6.65 9C6.65 9.24853 6.44853 9.45 6.2 9.45H2.7C2.45147 9.45 2.25 9.24853 2.25 9C2.25 8.75147 2.45147 8.55 2.7 8.55H3.90001V0.9H0.9Z" fill="#9DA3AE"/>
</svg>
